<svg width="72" height="72" viewBox="0 0 72 72" fill="none" xmlns="http://www.w3.org/2000/svg">
<mask id="mask0_38_132" style="mask-type:alpha" maskUnits="userSpaceOnUse" x="0" y="0" width="72" height="72">
<path d="M72 0H0V72H72V0Z" fill="white"/>
</mask>
<g mask="url(#mask0_38_132)">
<path fill-rule="evenodd" clip-rule="evenodd" d="M53.3563 11.881C50.5234 10.9435 47.6126 12.2309 44.7744 13.1384C44.3057 13.2881 43.6364 13.2602 43.184 13.5094C42.5546 13.8561 42.2701 14.6106 41.7693 15.0406C39.4221 17.0489 35.5348 17.6618 32.8714 17.1502L32.8042 17.003L31.493 17.6011C30.295 18.1702 30.1981 20.3586 29.0772 21.1829C27.4711 22.3657 25.7501 22.4136 24.4791 23.4583C23.3522 24.3843 22.1633 25.6898 21.3457 27.0139C19.9616 29.2594 20.2354 32.1455 19.4369 34.7945C18.9994 36.2412 17.7975 38.8201 16.8283 39.8834C14.6605 42.2579 11.9672 42.1831 9.19158 42.8348C3.09601 44.2671 -2.1631 47.0703 -5.9113 50.2569C-7.4733 51.5829 -9.02167 53.5837 -11.0072 54.5311C-12.8697 55.419 -15.2613 55.1841 -17.5981 56.2974C-20.3632 57.6151 -22.8258 60.0397 -24.6118 62.1545C-26.1991 64.0357 -27.0845 66.4792 -28.6906 68.2676C-30.3246 70.088 -32.4735 71.7976 -34.325 73.6733C-36.2105 75.5825 -38.2771 77.3008 -40.1057 79.1457C-46.6394 85.7316 -56.2824 91.3011 -54.8806 100.414L-53.4084 103.641C-52.0205 105.263 -50.037 106.156 -48.6548 107.496C-47.9045 107.091 -47.5605 107.828 -47.0206 107.991C-42.784 109.26 -39.1492 108.748 -34.2386 107.829C-32.8516 107.571 -30.8059 107.965 -29.7561 106.848C-35.1398 106.873 -41.6322 108.091 -46.3109 106.072C-47.1516 105.71 -48.8631 104.756 -49.2523 103.871C-51.1104 99.6461 -42.461 97.1589 -39.7252 95.804C-35.664 93.7938 -30.7602 91.8629 -26.7529 89.8862C-24.8184 88.9306 -22.0668 87.7699 -20.7691 89.106C-19.1522 88.7342 -17.2646 89.6548 -15.3141 89.0971C-14.5881 88.8886 -14.0105 88.4135 -13.2723 88.1657C-9.90279 87.0304 -6.37168 87.7742 -4.31233 88.5074C-5.03643 90.4293 -6.82104 91.4561 -7.84062 93.1278C-8.79113 94.6858 -9.25826 96.369 -10.717 97.6298C-11.823 98.5845 -13.1357 99.1305 -14.398 100.37C-14.949 101.581 -15.7317 102.702 -15.0329 104.381C-15.7572 105.525 -15.4101 107.073 -16.3073 108.152C-15.6221 108.926 -15.7687 109.399 -15.9415 110.112C-15.111 110.093 -15.2491 109.089 -14.9095 109.286C-15.6851 111.576 -16.247 113.763 -15.3624 116.401C-13.5902 117.941 -11.748 119.297 -9.98447 120.857C-7.88257 121.507 -5.01842 120.102 -2.71293 120.2C-2.15587 119.354 -0.583098 118.529 0.650777 118.308C0.753511 115.875 -0.893858 116.504 -2.22389 116.254C-3.09849 116.09 -4.61577 115.124 -5.51705 115.985C-7.21679 112.987 -8.44229 109.663 -9.20387 105.973C-8.8552 103.576 -5.96428 101.326 -2.7864 100.742C-2.73242 101.875 -3.37059 102.857 -3.10612 103.901C-2.5925 105.926 -1.38103 105.956 -0.334089 106.89C0.775753 107.878 2.04064 109.182 2.84933 110.396C3.42911 111.267 4.28957 112.309 4.6244 113.129C4.77406 113.496 5.05345 115.092 4.43118 114.636C5.37282 115.746 4.63622 117.672 5.8782 118.58C7.67517 118.855 9.98266 117.749 11.862 117.8L12.4444 117.534C11.492 115.39 14.5296 113.679 16.1246 114.792C17.8171 114.149 19.5139 113.486 21.2923 112.61C20.9008 111.094 21.8528 109.177 23.8425 109.322C22.4635 107.048 19.643 108.663 17.6382 108.077C13.6144 110.581 11.1599 109.387 8.01527 108.214C6.64155 106.11 4.11736 105.173 3.66836 102.933C3.31601 101.172 3.71735 97.2454 4.54657 95.9779C5.50222 94.512 7.38781 93.8736 7.75742 92.2091C8.09836 90.6758 7.14137 89.4657 6.89289 87.9966C6.51162 85.7483 7.83736 83.8062 7.4774 81.1757C9.73139 79.7704 12.0894 77.9552 14.1083 76.0246C15.7485 74.458 16.9793 72.4963 18.2862 71.2856C19.8373 69.8475 20.0731 70.4895 21.6801 70.6232C23.8251 70.7984 25.2923 70.5568 26.9543 71.7605C28.1129 71.0338 28.7904 71.5993 29.6867 71.5777C28.5988 69.0484 25.7575 69.5588 24.4732 68.6388C25.1354 68.6338 26.4449 67.4703 27.3773 67.6674C26.7165 66.3953 25.5363 66.5352 24.2428 66.9734C24.7287 66.3859 25.6109 65.9508 25.9482 65.3096C28.348 66.9162 31.8179 66.9328 35.1986 65.5176C36.2816 65.0641 37.117 63.9649 38.328 64.2679C38.8046 64.8271 40.115 65.105 40.9353 65.7359C41.2863 64.4626 40.0655 61.8748 38.4536 62.6133C38.4533 62.0878 39.3461 61.8966 39.9249 61.5887C37.5602 59.203 36.3004 63.2095 34.5429 63.6904C32.8555 64.1507 30.966 62.8954 28.8761 63.6181C27.3311 61.4796 29.7407 59.3189 28.6752 56.6207C32.6911 51.941 38.2208 47.8312 39.2817 42.037C41.8425 41.7332 44.0371 41.2228 47.0137 40.4592C50.9201 39.4561 54.5722 41.2601 57.5909 39.7087C59.3983 38.7807 60.1756 36.7501 60.4801 34.8474C59.1605 34.4217 58.6875 34.0544 57.6603 33.2984C57.2937 33.6401 57.3372 33.9512 57.3023 33.2839C56.7401 33.4762 56.8592 33.9261 56.9072 34.3499C56.4247 34.4204 56.7806 33.837 56.5727 33.6167C56.1114 33.8047 55.9402 34.1945 55.8867 34.8155C55.4982 34.8148 56.0166 34.1462 55.5647 33.722C55.0389 33.9697 55.3715 34.5395 55.0241 34.8544C54.596 34.5241 54.748 33.0083 53.9535 32.5075C53.4718 32.6901 53.8377 33.1929 53.7064 33.506C53.3511 33.5927 53.316 32.8096 53.0936 32.5452C52.6188 32.9734 52.6629 33.5972 52.6083 34.1837C52.2285 34.2242 52.1746 33.3877 51.9269 33.0775C51.6038 33.1809 51.529 34.3192 51.5454 33.7839C51.1496 32.0701 54.9588 32.6612 54.9338 31.1745C54.5674 30.5233 53.7856 30.9993 53.14 31.107C51.3944 30.5886 49.6367 30.0927 47.4851 30.6758C46.3565 28.6311 45.9517 26.8583 45.8723 25.2106C46.1155 25.1773 45.8998 25.4254 46.0734 25.6513C46.6311 25.4565 46.2696 24.9168 46.2532 24.5056C46.7242 25.109 46.8888 24.5207 47.2263 25.4788C47.983 25.2788 47.106 24.4621 47.6997 24.1991C48.1633 24.2173 47.9871 25.1283 48.2458 25.0137C49.1071 24.8932 48.0904 24.0648 48.7846 23.8821C49.2827 24.0668 49.6693 24.5512 50.036 25.0828C50.464 24.7582 50.3313 24.2221 50.0847 23.6424C50.5586 24.1072 51.0744 24.4606 51.4691 25.1371C52.2193 24.4887 51.5379 23.3014 52.0594 22.5637C52.3449 23.2067 52.7077 23.6513 53.0863 24.0447C53.7105 23.5101 53.3075 22.5898 53.0913 21.7384C53.9653 22.4158 53.8836 20.9076 54.3128 21.7136C54.7162 21.5825 54.697 21.2929 54.4807 20.929C54.8841 21.0433 55.0997 21.663 55.5334 21.6892C56.1982 21.3612 54.9308 20.1182 55.9373 20.2645C55.6887 19.4842 56.4485 20.5637 56.6426 20.6508C57.0771 19.1953 56.2179 17.2528 57.1564 15.9872L56.4203 14.3736C55.3605 13.593 54.5351 12.9239 53.3564 11.8801L53.3563 11.881ZM36.1936 20.514L35.5946 22.2956C35.5946 22.2956 34.2921 22.5352 33.8896 21.6529C33.4875 20.7715 33.8042 20.8528 34.5602 19.7977L35.6237 19.2646L36.1936 20.514Z" fill="white"/>
<path d="M36.7205 20.1601L36.0005 22.3201L34.5605 23.0401L33.4805 21.9601V20.8801L34.2005 19.4401L36.0005 19.0801L36.7205 20.1601Z" fill="#F4080B"/>
</g>
</svg>
