<svg width="386" height="526" viewBox="0 0 386 526" fill="none" xmlns="http://www.w3.org/2000/svg">
<path d="M384.589 241.567C383.939 238.746 382.6 236.131 380.691 233.955C378.782 231.779 376.363 230.11 373.651 229.098L247.651 181.848L279.589 21.5047C280.323 17.7906 279.849 13.9388 278.235 10.5139C276.621 7.08906 273.952 4.27125 270.62 2.47349C267.255 0.683527 263.392 0.0562318 259.634 0.689245C255.875 1.32226 252.432 3.18007 249.839 5.97349L4.83864 268.473C2.83112 270.556 1.37859 273.11 0.614203 275.9C-0.150179 278.69 -0.201946 281.627 0.463641 284.442C1.14849 287.247 2.50047 289.846 4.40468 292.017C6.30889 294.188 8.70904 295.866 11.4011 296.911L137.401 344.161L105.464 504.505C104.729 508.219 105.204 512.071 106.818 515.496C108.432 518.92 111.1 521.738 114.432 523.536C116.944 524.803 119.713 525.477 122.526 525.505C124.903 525.515 127.257 525.034 129.44 524.093C131.623 523.152 133.589 521.771 135.214 520.036L380.214 257.536C382.221 255.453 383.674 252.9 384.438 250.11C385.202 247.32 385.254 244.382 384.589 241.567Z" fill="white" fill-opacity="1"/>
</svg>
