<svg width="25" height="24" viewBox="0 0 25 24" fill="none" xmlns="http://www.w3.org/2000/svg">
<path d="M20.7314 11.0812C20.7035 10.9604 20.6462 10.8483 20.5643 10.755C20.4825 10.6617 20.3789 10.5902 20.2626 10.5469L14.8626 8.52187L16.2314 1.65C16.2629 1.49082 16.2425 1.32574 16.1734 1.17896C16.1042 1.03218 15.9898 0.911421 15.847 0.834374C15.7028 0.757661 15.5373 0.730777 15.3762 0.757906C15.2151 0.785036 15.0675 0.864656 14.9564 0.984374L4.45639 12.2344C4.37036 12.3236 4.30811 12.4331 4.27535 12.5526C4.24259 12.6722 4.24037 12.7981 4.26889 12.9187C4.29824 13.039 4.35619 13.1503 4.4378 13.2434C4.5194 13.3364 4.62227 13.4084 4.73764 13.4531L10.1376 15.4781L8.76889 22.35C8.73741 22.5092 8.75775 22.6743 8.82692 22.821C8.8961 22.9678 9.01047 23.0886 9.15327 23.1656C9.26091 23.2199 9.37958 23.2488 9.50014 23.25C9.60202 23.2504 9.7029 23.2298 9.79646 23.1895C9.89002 23.1492 9.97425 23.09 10.0439 23.0156L20.5439 11.7656C20.6299 11.6764 20.6922 11.5669 20.7249 11.4474C20.7577 11.3278 20.7599 11.2019 20.7314 11.0812Z" fill="#F4080B"/>
</svg>
