<svg width="100" height="100" viewBox="0 0 100 100" fill="none" xmlns="http://www.w3.org/2000/svg">
<path d="M53.1248 35.938H89.0623C89.4767 35.938 89.8741 35.7734 90.1672 35.4803C90.4602 35.1873 90.6248 34.7899 90.6248 34.3755V21.8755C90.6248 21.0467 90.2956 20.2518 89.7095 19.6658C89.1235 19.0797 88.3286 18.7505 87.4998 18.7505H54.6873C54.2729 18.7505 53.8755 18.9151 53.5825 19.2081C53.2894 19.5012 53.1248 19.8986 53.1248 20.313V35.938Z" fill="white"/>
<path d="M71.8751 59.3755H89.0626C89.477 59.3755 89.8744 59.2109 90.1674 58.9179C90.4605 58.6248 90.6251 58.2274 90.6251 57.813V43.7505C90.6251 43.3361 90.4605 42.9387 90.1674 42.6457C89.8744 42.3526 89.477 42.188 89.0626 42.188H71.8751V59.3755Z" fill="white"/>
<path d="M65.6251 42.188H34.3751V59.3755H65.6251V42.188Z" fill="white"/>
<path d="M28.125 42.188H10.9375C10.5231 42.188 10.1257 42.3526 9.83265 42.6457C9.53962 42.9387 9.375 43.3361 9.375 43.7505V57.813C9.375 58.2274 9.53962 58.6248 9.83265 58.9179C10.1257 59.2109 10.5231 59.3755 10.9375 59.3755H28.125V42.188Z" fill="white"/>
<path d="M53.1248 65.625V79.6875C53.1248 80.1019 53.2894 80.4993 53.5825 80.7923C53.8755 81.0853 54.2729 81.25 54.6873 81.25H87.4998C88.3286 81.25 89.1235 80.9207 89.7095 80.3347C90.2956 79.7486 90.6248 78.9538 90.6248 78.125V67.1875C90.6248 66.7731 90.4602 66.3756 90.1672 66.0826C89.8741 65.7896 89.4767 65.625 89.0623 65.625H53.1248Z" fill="white"/>
<path d="M46.875 35.938V20.313C46.875 19.8986 46.7104 19.5012 46.4174 19.2081C46.1243 18.9151 45.7269 18.7505 45.3125 18.7505H12.5C11.6712 18.7505 10.8763 19.0797 10.2903 19.6658C9.70424 20.2518 9.375 21.0467 9.375 21.8755V34.3755C9.375 34.7899 9.53962 35.1873 9.83265 35.4803C10.1257 35.7734 10.5231 35.938 10.9375 35.938H46.875Z" fill="white"/>
<path d="M46.875 65.625H10.9375C10.5231 65.625 10.1257 65.7896 9.83265 66.0826C9.53962 66.3756 9.375 66.7731 9.375 67.1875V78.125C9.375 78.9538 9.70424 79.7486 10.2903 80.3347C10.8763 80.9207 11.6712 81.25 12.5 81.25H45.3125C45.7269 81.25 46.1243 81.0853 46.4174 80.7923C46.7104 80.4993 46.875 80.1019 46.875 79.6875V65.625Z" fill="white"/>
</svg>
