<svg width="72" height="72" viewBox="0 0 72 72" fill="none" xmlns="http://www.w3.org/2000/svg">
<path d="M47.9194 25.4882L51.8545 28.4764L33.1204 53.1465L33.8402 56.1603L22.3203 56.1603L29.2747 50.0406L47.9194 25.4882Z" fill="#F4080B"/>
<path d="M67.5 44.9996V51.7496C67.5 52.9431 67.0259 54.0877 66.182 54.9316C65.3381 55.7755 64.1935 56.2496 63 56.2496H32.4844C32.2754 56.2496 32.0707 56.1914 31.8929 56.0816C31.7152 55.9718 31.5716 55.8146 31.4781 55.6277C31.3847 55.4409 31.3452 55.2317 31.3639 55.0236C31.3827 54.8155 31.459 54.6168 31.5844 54.4496L50.0625 30.3746C50.4309 29.9073 50.6044 29.3156 50.5468 28.7233C50.4891 28.1311 50.2048 27.584 49.7531 27.1965C49.522 27.0021 49.2536 26.8569 48.9645 26.7697C48.6753 26.6825 48.3714 26.6552 48.0713 26.6894C47.7713 26.7236 47.4813 26.8187 47.2192 26.9687C46.9571 27.1188 46.7283 27.3207 46.5469 27.5621L24.8625 55.7996C24.7637 55.9388 24.6329 56.0523 24.4813 56.1306C24.3296 56.2089 24.1613 56.2497 23.9906 56.2496H9C7.80653 56.2496 6.66193 55.7755 5.81802 54.9316C4.97411 54.0877 4.5 52.9431 4.5 51.7496V45.309C4.50535 43.2127 4.71256 41.1218 5.11875 39.0652L11.5031 40.7809L12.0938 40.8371C12.6027 40.8374 13.0968 40.6652 13.4952 40.3485C13.8937 40.0317 14.173 39.5893 14.2875 39.0934C14.4145 38.5121 14.3091 37.9042 13.9937 37.3996C13.6784 36.8951 13.1782 36.5339 12.6 36.3934L6.3 34.7059C10.4062 23.0621 21.0656 14.484 33.75 13.584V20.1652C33.7408 20.7491 33.9533 21.3147 34.3448 21.748C34.7363 22.1812 35.2776 22.4498 35.8594 22.4996C36.1665 22.5188 36.4742 22.4749 36.7637 22.3705C37.0531 22.266 37.318 22.1033 37.5421 21.8925C37.7661 21.6816 37.9446 21.427 38.0663 21.1444C38.1881 20.8618 38.2506 20.5573 38.25 20.2496V13.584C45.7966 14.1101 52.8986 17.3465 58.2469 22.6965C61.6304 26.071 64.2072 30.1669 65.7844 34.6777L59.4 36.3934C58.8218 36.5339 58.3216 36.8951 58.0063 37.3996C57.6909 37.9042 57.5855 38.5121 57.7125 39.0934C57.827 39.5893 58.1063 40.0317 58.5048 40.3485C58.9032 40.6652 59.3973 40.8374 59.9063 40.8371L60.4969 40.7809L66.9375 39.0371C67.3098 41.0028 67.4981 42.999 67.5 44.9996Z" fill="white"/>
</svg>
