<svg width="72" height="72" viewBox="0 0 72 72" fill="none" xmlns="http://www.w3.org/2000/svg">
<path d="M56.475 15.1594C51.0253 9.76694 43.6667 6.74464 36 6.75001H35.6906C28.8117 6.81727 22.1767 9.3069 16.9515 13.7814C11.7263 18.2558 8.24531 24.4288 7.12037 31.2154C5.99542 38.002 7.29847 44.968 10.8005 50.8891C14.3025 56.8102 19.7795 61.3075 26.2688 63.5906C27.6259 64.0671 29.0774 64.2113 30.5017 64.0113C31.926 63.8112 33.2817 63.2728 34.455 62.4409C35.6284 61.6091 36.5853 60.5082 37.2456 59.2304C37.9059 57.9526 38.2503 56.5352 38.25 55.0969V54C38.25 52.8065 38.7241 51.6619 39.568 50.818C40.4119 49.9741 41.5565 49.5 42.75 49.5H55.7437C57.7875 49.5153 59.7745 48.828 61.372 47.5531C62.9694 46.2782 64.0804 44.4932 64.5187 42.4969C65.0302 40.284 65.2756 38.018 65.25 35.7469C65.2273 31.9046 64.4396 28.1053 62.933 24.5706C61.4265 21.0359 59.2311 17.8366 56.475 15.1594ZM25.0313 46.2375C24.453 46.5707 23.789 46.7249 23.1231 46.6808C22.4572 46.6367 21.8193 46.3961 21.2901 45.9895C20.7609 45.583 20.3641 45.0286 20.1499 44.3966C19.9357 43.7645 19.9137 43.0832 20.0866 42.4386C20.2595 41.7941 20.6197 41.2153 21.1215 40.7753C21.6233 40.3354 22.2443 40.0541 22.9059 39.967C23.5676 39.88 24.2402 39.991 24.8387 40.2861C25.4373 40.5812 25.9349 41.0471 26.2688 41.625C26.4906 42.0091 26.6346 42.4331 26.6925 42.8728C26.7503 43.3125 26.721 43.7594 26.606 44.1878C26.4911 44.6161 26.2929 45.0177 26.0226 45.3694C25.7524 45.7211 25.4156 46.0161 25.0313 46.2375ZM26.2688 30.375C25.9349 30.9529 25.4373 31.4188 24.8387 31.7139C24.2402 32.009 23.5676 32.12 22.9059 32.033C22.2443 31.9459 21.6233 31.6646 21.1215 31.2247C20.6197 30.7848 20.2595 30.2059 20.0866 29.5614C19.9137 28.9168 19.9357 28.2355 20.1499 27.6034C20.3641 26.9714 20.7609 26.4171 21.2901 26.0105C21.8193 25.6039 22.4572 25.3633 23.1231 25.3192C23.789 25.2751 24.453 25.4293 25.0313 25.7625C25.8017 26.2149 26.3634 26.9523 26.5949 27.8152C26.8265 28.6782 26.7093 29.5977 26.2688 30.375ZM36 24.75C35.3325 24.75 34.68 24.5521 34.125 24.1812C33.5699 23.8104 33.1374 23.2833 32.8819 22.6666C32.6265 22.0499 32.5596 21.3713 32.6899 20.7166C32.8201 20.0619 33.1415 19.4605 33.6135 18.9885C34.0855 18.5165 34.6869 18.1951 35.3416 18.0649C35.9963 17.9346 36.6749 18.0015 37.2916 18.2569C37.9083 18.5124 38.4354 18.9449 38.8062 19.5C39.1771 20.055 39.375 20.7075 39.375 21.375C39.375 22.2701 39.0194 23.1286 38.3865 23.7615C37.7536 24.3944 36.8951 24.75 36 24.75ZM50.3438 31.6125C49.7655 31.9457 49.1015 32.0999 48.4356 32.0558C47.7697 32.0117 47.1318 31.7711 46.6026 31.3645C46.0734 30.958 45.6767 30.4036 45.4624 29.7716C45.2482 29.1395 45.2262 28.4582 45.3991 27.8136C45.572 27.1691 45.9322 26.5903 46.434 26.1503C46.9358 25.7104 47.5568 25.4291 48.2184 25.342C48.8801 25.255 49.5527 25.366 50.1512 25.6611C50.7498 25.9562 51.2474 26.4221 51.5812 27C52.0218 27.7774 52.139 28.6968 51.9074 29.5598C51.6759 30.4228 51.1142 31.1601 50.3438 31.6125Z" fill="white"/>
<circle cx="48.9599" cy="28.7998" r="5.04" fill="#F4080B"/>
</svg>
