<svg width="72" height="72" viewBox="0 0 72 72" fill="none" xmlns="http://www.w3.org/2000/svg">
<rect width="72" height="72" rx="10" fill="white"/>
<path d="M41.8615 46.1738H29.7725C29.223 46.1738 28.6735 46.3571 28.3072 46.7235L25.5597 48.739C25.1934 49.1054 25.3766 49.8383 25.9261 49.8383H45.708C46.2575 49.8383 46.4407 49.1054 46.0743 48.739L43.3268 46.5403C42.9605 46.3571 42.411 46.1738 41.8615 46.1738Z" fill="#F4080B"/>
<path d="M28.8552 43.4252L34.5333 33.3478C34.7165 32.7981 34.8997 32.4317 34.8997 31.882L34.3502 27.8511C34.3502 27.3014 33.6176 27.1182 33.2512 27.6678L22.9939 45.2575C22.8108 45.8072 23.1771 46.3568 23.7266 45.9904L27.5731 44.3413C28.1226 44.3413 28.4889 43.9749 28.8552 43.4252Z" fill="#F4080B"/>
<path d="M37.4635 33.5318L43.3248 43.6092C43.508 44.1589 44.0574 44.5253 44.4237 44.7085L48.087 46.3576C48.6365 46.5408 49.0029 45.9911 48.8197 45.6247L38.5625 28.035C38.3794 27.4853 37.6467 27.6686 37.4635 28.2182L36.9141 32.2492C37.0972 32.4324 37.0972 32.9821 37.4635 33.5318Z" fill="#F4080B"/>
<path d="M39.1139 15.5737L38.5645 20.5208C38.5645 21.2537 38.5644 21.8034 38.9308 22.353L53.5841 47.8214C53.9504 48.3711 54.4999 48.9207 55.0494 49.104L59.6285 50.9362C60.178 51.1194 60.7276 50.5698 60.3612 50.0201L40.3961 15.2073C40.0298 14.8408 39.1139 15.024 39.1139 15.5737Z" fill="#F4080B"/>
<path d="M49.919 52.4023H21.8948C21.1622 52.4023 20.6127 52.5856 20.0632 52.952L16.0335 55.8836C15.484 56.2501 15.8504 56.983 16.3999 56.983H55.2308C55.7803 56.983 56.1467 56.2501 55.5972 55.8836L51.5675 52.952C51.3844 52.5856 50.6517 52.4023 49.919 52.4023Z" fill="#F4080B"/>
<path d="M18.2321 47.8253L32.8853 22.357C33.2517 21.8073 33.4349 21.0744 33.2517 20.5247L32.7022 15.5776C32.7022 15.0279 31.7863 14.8447 31.6032 15.3944L11.6381 50.2072C11.2718 50.7569 11.8213 51.3066 12.3708 51.1234L16.9499 49.2911C17.4994 48.7414 18.0489 48.375 18.2321 47.8253Z" fill="#F4080B"/>
</svg>
