<svg width="72" height="72" viewBox="0 0 72 72" fill="none" xmlns="http://www.w3.org/2000/svg">
<path d="M29.25 52.875C29.25 54.8775 28.6562 56.8351 27.5436 58.5001C26.4311 60.1652 24.8498 61.4629 22.9997 62.2293C21.1496 62.9956 19.1138 63.1961 17.1497 62.8055C15.1857 62.4148 13.3816 61.4505 11.9655 60.0345C10.5495 58.6184 9.58523 56.8143 9.19455 54.8503C8.80388 52.8862 9.00439 50.8504 9.77072 49.0003C10.5371 47.1502 11.8348 45.5689 13.4999 44.4564C15.1649 43.3438 17.1225 42.75 19.125 42.75C21.8103 42.75 24.3857 43.8167 26.2845 45.7155C28.1833 47.6143 29.25 50.1897 29.25 52.875ZM44.3531 14.1469L43.6781 13.5H49.5C50.0967 13.5 50.669 13.2629 51.091 12.841C51.513 12.419 51.75 11.8467 51.75 11.25C51.75 10.6533 51.513 10.081 51.091 9.65901C50.669 9.23705 50.0967 9 49.5 9H38.25C37.6533 9 37.081 9.23705 36.659 9.65901C36.2371 10.081 36 10.6533 36 11.25V22.5C36 23.0967 36.2371 23.669 36.659 24.091C37.081 24.5129 37.6533 24.75 38.25 24.75C38.8467 24.75 39.419 24.5129 39.841 24.091C40.263 23.669 40.5 23.0967 40.5 22.5V16.6781L41.1469 17.3531C46.2094 22.3875 46.1813 27.3094 45.3094 30.5437C43.9875 35.2406 39.8531 39.4594 35.4656 40.5562C34.8866 40.7027 34.3883 41.0707 34.078 41.5809C33.7676 42.0912 33.67 42.7029 33.8063 43.2844C33.9262 43.7751 34.2079 44.2112 34.6058 44.5224C35.0037 44.8336 35.4948 45.0018 36 45L36.5344 44.9437C42.525 43.4531 47.8969 38.025 49.6406 31.725C51.3844 25.425 49.4719 19.2937 44.3531 14.1469Z" fill="white"/>
<path d="M11.249 33.7506C10.6508 33.7506 10.0759 33.5182 9.64586 33.1023C9.22335 32.6757 8.98633 32.0996 8.98633 31.4992C8.98633 30.8988 9.22335 30.3226 9.64586 29.8961L13.6959 25.8742L9.64586 21.8523C9.28707 21.4151 9.10371 20.8601 9.13145 20.2953C9.1592 19.7304 9.39606 19.1961 9.79596 18.7962C10.1959 18.3963 10.7302 18.1594 11.2951 18.1317C11.86 18.1039 12.4149 18.2873 12.8521 18.6461L16.874 22.6961L20.8959 18.6461C21.333 18.2873 21.888 18.1039 22.4529 18.1317C23.0178 18.1594 23.5521 18.3963 23.952 18.7962C24.3519 19.1961 24.5888 19.7304 24.6165 20.2953C24.6443 20.8601 24.4609 21.4151 24.1021 21.8523L20.0521 25.8742L24.1021 29.8961C24.5246 30.3226 24.7616 30.8988 24.7616 31.4992C24.7616 32.0996 24.5246 32.6757 24.1021 33.1023C23.672 33.5182 23.0972 33.7506 22.499 33.7506C21.9008 33.7506 21.3259 33.5182 20.8959 33.1023L16.874 29.0523L12.8521 33.1023C12.422 33.5182 11.8472 33.7506 11.249 33.7506Z" fill="#F4080B"/>
<path d="M62.3521 48.8523L58.3021 52.8742L62.3521 56.8961C62.7746 57.3226 63.0116 57.8988 63.0116 58.4992C63.0116 59.0996 62.7746 59.6757 62.3521 60.1023C61.922 60.5182 61.3472 60.7506 60.749 60.7506C60.1508 60.7506 59.5759 60.5182 59.1459 60.1023L55.124 56.0523L51.1021 60.1023C50.672 60.5182 50.0972 60.7506 49.499 60.7506C48.9008 60.7506 48.3259 60.5182 47.8959 60.1023C47.4734 59.6757 47.2363 59.0996 47.2363 58.4992C47.2363 57.8988 47.4734 57.3226 47.8959 56.8961L51.9459 52.8742L47.8959 48.8523C47.5371 48.4151 47.3537 47.8601 47.3815 47.2953C47.4092 46.7304 47.6461 46.1961 48.046 45.7962C48.4459 45.3963 48.9802 45.1594 49.5451 45.1317C50.11 45.1039 50.6649 45.2873 51.1021 45.6461L55.124 49.6961L59.1459 45.6461C59.583 45.2873 60.138 45.1039 60.7029 45.1317C61.2678 45.1594 61.8021 45.3963 62.202 45.7962C62.6019 46.1961 62.8388 46.7304 62.8665 47.2953C62.8943 47.8601 62.7109 48.4151 62.3521 48.8523Z" fill="#F4080B"/>
</svg>
