<svg width="64" height="60" viewBox="0 0 64 60" fill="none" xmlns="http://www.w3.org/2000/svg">
<rect width="64" height="60" rx="10" fill="#313131"/>
<path d="M36.5509 37.9011H27.162C26.7353 37.9011 26.3085 38.0434 26.024 38.328L23.8902 39.8933C23.6057 40.1779 23.748 40.7471 24.1747 40.7471H39.5382C39.965 40.7471 40.1073 40.1779 39.8227 39.8933L37.6889 38.1857C37.4044 38.0434 36.9776 37.9011 36.5509 37.9011Z" fill="#F4080B"/>
<path d="M26.4505 35.7668L30.8603 27.9402C31.0026 27.5133 31.1449 27.2287 31.1449 26.8018L30.7181 23.6712C30.7181 23.2443 30.1491 23.102 29.8646 23.5289L21.8983 37.1898C21.7561 37.6167 22.0406 38.0436 22.4673 37.759L25.4547 36.4783C25.8815 36.4783 26.1659 36.1937 26.4505 35.7668Z" fill="#F4080B"/>
<path d="M33.1357 28.0826L37.6878 35.9091C37.8301 36.336 38.2568 36.6206 38.5413 36.7629L41.3864 38.0436C41.8131 38.1859 42.0977 37.759 41.9554 37.4744L33.9893 23.8135C33.847 23.3866 33.278 23.5289 33.1357 23.9558L32.709 27.0865C32.8512 27.2288 32.8512 27.6557 33.1357 28.0826Z" fill="#F4080B"/>
<path d="M34.4189 14.1363L33.9922 17.9785C33.9922 18.5477 33.9922 18.9746 34.2767 19.4015L45.6571 39.1813C45.9416 39.6082 46.3683 40.0351 46.7951 40.1774L50.3515 41.6004C50.7782 41.7427 51.205 41.3158 50.9205 40.8889L35.4147 13.8517C35.1302 13.5671 34.4189 13.7094 34.4189 14.1363Z" fill="#F4080B"/>
<path d="M42.8093 42.7388H21.0445C20.4755 42.7388 20.0487 42.8811 19.622 43.1657L16.4924 45.4426C16.0656 45.7272 16.3501 46.2964 16.7769 46.2964H46.9347C47.3614 46.2964 47.646 45.7272 47.2192 45.4426L44.0896 43.1657C43.9474 42.8811 43.3783 42.7388 42.8093 42.7388Z" fill="#F4080B"/>
<path d="M18.2006 39.1836L29.5809 19.4038C29.8654 18.9769 30.0077 18.4077 29.8655 17.9808L29.4387 14.1386C29.4387 13.7117 28.7274 13.5694 28.5851 13.9963L13.0794 41.0335C12.7949 41.4604 13.2217 41.8873 13.6484 41.745L17.2048 40.322C17.6316 39.8951 18.0583 39.6105 18.2006 39.1836Z" fill="#F4080B"/>
</svg>
