<svg width="100" height="100" viewBox="0 0 100 100" fill="none" xmlns="http://www.w3.org/2000/svg">
<path d="M91.9526 54.218C91.3732 54.8549 90.6678 55.3643 89.881 55.714C89.0942 56.0637 88.2433 56.2459 87.3823 56.2492H53.1245V78.1243C53.1245 79.7819 53.783 81.3716 54.9551 82.5437C56.1272 83.7158 57.7169 84.3743 59.3745 84.3743C61.0321 84.3743 62.6218 83.7158 63.7939 82.5437C64.966 81.3716 65.6245 79.7819 65.6245 78.1243C65.6245 77.2954 65.9538 76.5006 66.5398 75.9145C67.1259 75.3285 67.9207 74.9993 68.7495 74.9993C69.5783 74.9993 70.3732 75.3285 70.9592 75.9145C71.5453 76.5006 71.8745 77.2954 71.8745 78.1243C71.8745 81.4395 70.5576 84.6189 68.2133 86.9631C65.8691 89.3073 62.6897 90.6243 59.3745 90.6243C56.0593 90.6243 52.8799 89.3073 50.5357 86.9631C48.1915 84.6189 46.8745 81.4395 46.8745 78.1243V56.2492H12.6167C11.7557 56.2459 10.9048 56.0637 10.1181 55.714C9.33127 55.3643 8.62579 54.8549 8.04639 54.218C7.45093 53.5852 6.99673 52.8331 6.71389 52.0115C6.43105 51.1899 6.32602 50.3176 6.40576 49.4524C7.08368 41.2835 10.0449 33.4698 14.9513 26.9035C19.8578 20.3371 26.5117 15.2826 34.1534 12.3172C41.7952 9.35174 50.1168 8.59478 58.1682 10.1327C66.2196 11.6707 73.6763 15.4416 79.687 21.0149C87.7438 28.4004 92.7112 38.5583 93.5933 49.4524C93.673 50.3176 93.568 51.1899 93.2851 52.0115C93.0023 52.8331 92.5481 53.5852 91.9526 54.218Z" fill="white"/>
</svg>
