<svg width="100" height="100" viewBox="0 0 100 100" fill="none" xmlns="http://www.w3.org/2000/svg">
<path d="M87.4623 58.2422C87.5744 58.6372 87.6066 59.0506 87.5569 59.4582C87.5072 59.8658 87.3767 60.2594 87.173 60.6159C86.9692 60.9725 86.6964 61.2847 86.3705 61.5345C86.0445 61.7842 85.672 61.9664 85.2748 62.0703L75.4701 64.7266L78.0873 74.4922C78.1994 74.8872 78.2316 75.3006 78.1819 75.7082C78.1322 76.1158 78.0017 76.5094 77.798 76.8659C77.5942 77.2225 77.3214 77.5347 76.9955 77.7845C76.6695 78.0342 76.297 78.2164 75.8998 78.3203L75.0795 78.4375C74.3949 78.4358 73.7298 78.2094 73.1864 77.7931C72.643 77.3767 72.2513 76.7934 72.0716 76.1328L68.9857 64.5703L53.1263 55.4297V73.7109L61.6029 82.1484C62.1897 82.7409 62.5189 83.5411 62.5189 84.375C62.5189 85.2089 62.1897 86.0091 61.6029 86.6016C61.0056 87.1791 60.2072 87.502 59.3763 87.502C58.5455 87.502 57.7471 87.1791 57.1498 86.6016L50.0013 79.4141L42.8529 86.6016C42.2457 87.0999 41.4749 87.3546 40.6904 87.316C39.9058 87.2775 39.1637 86.9485 38.6082 86.3931C38.0528 85.8377 37.7239 85.0955 37.6853 84.311C37.6468 83.5264 37.9015 82.7556 38.3998 82.1484L46.8763 73.7109V55.4297L31.017 64.5703L27.931 76.1328C27.7513 76.7934 27.3597 77.3767 26.8163 77.7931C26.2729 78.2094 25.6078 78.4358 24.9232 78.4375L24.1029 78.3203C23.7057 78.2164 23.3331 78.0342 23.0072 77.7845C22.6813 77.5347 22.4084 77.2225 22.2047 76.8659C22.001 76.5094 21.8705 76.1158 21.8208 75.7082C21.7711 75.3006 21.8033 74.8872 21.9154 74.4922L24.5326 64.7266L14.7279 62.0703C14.3078 61.9862 13.9096 61.8165 13.5578 61.572C13.2061 61.3274 12.9084 61.0131 12.6832 60.6487C12.4581 60.2842 12.3102 59.8773 12.249 59.4534C12.1877 59.0294 12.2142 58.5973 12.3269 58.184C12.4396 57.7707 12.6361 57.3849 12.9042 57.0508C13.1723 56.7166 13.5062 56.4411 13.8852 56.2414C14.2642 56.0418 14.6803 55.9221 15.1075 55.89C15.5347 55.8579 15.9639 55.9139 16.3685 56.0547L27.892 59.1406L43.7513 50L27.892 40.8594L16.3685 43.9453C16.1019 44.0225 15.8258 44.062 15.5482 44.0625C14.7959 44.056 14.0711 43.7783 13.5071 43.2803C12.943 42.7824 12.5776 42.0977 12.4778 41.3519C12.3781 40.6062 12.5507 39.8495 12.9641 39.2208C13.3774 38.5921 14.0037 38.1337 14.7279 37.9297L24.5326 35.2734L21.9154 25.5078C21.7599 24.7315 21.9048 23.925 22.3209 23.2515C22.7371 22.5779 23.3934 22.0874 24.1573 21.879C24.9211 21.6707 25.7356 21.7601 26.4361 22.1291C27.1366 22.4982 27.6709 23.1194 27.931 23.8672L31.017 35.4297L46.8763 44.5703V26.2891L38.3998 17.8516C37.9015 17.2444 37.6468 16.4736 37.6853 15.689C37.7239 14.9045 38.0528 14.1623 38.6082 13.6069C39.1637 13.0515 39.9058 12.7225 40.6904 12.684C41.4749 12.6455 42.2457 12.9001 42.8529 13.3984L50.0013 20.5859L57.1498 13.3984C57.7569 12.9001 58.5278 12.6455 59.3123 12.684C60.0968 12.7225 60.839 13.0515 61.3944 13.6069C61.9498 14.1623 62.2788 14.9045 62.3174 15.689C62.3559 16.4736 62.1012 17.2444 61.6029 17.8516L53.1263 26.2891V44.5703L68.9857 35.4297L72.0716 23.8672C72.1558 23.4471 72.3254 23.0489 72.57 22.6971C72.8146 22.3454 73.1288 22.0477 73.4933 21.8225C73.8578 21.5974 74.2646 21.4495 74.6886 21.3882C75.1126 21.3269 75.5447 21.3535 75.958 21.4662C76.3713 21.5789 76.757 21.7754 77.0912 22.0435C77.4254 22.3116 77.7008 22.6455 77.9005 23.0245C78.1002 23.4035 78.2198 23.8196 78.252 24.2468C78.2841 24.674 78.228 25.1032 78.0873 25.5078L75.4701 35.2734L85.2748 37.9297C85.999 38.1337 86.6253 38.5921 87.0386 39.2208C87.4519 39.8495 87.6246 40.6062 87.5248 41.3519C87.4251 42.0977 87.0596 42.7824 86.4956 43.2803C85.9316 43.7783 85.2068 44.056 84.4545 44.0625L83.6341 43.9453L72.1107 40.8594L56.2513 50L72.1107 59.1406L83.6341 56.0547C84.0292 55.9426 84.4426 55.9104 84.8502 55.9601C85.2578 56.0098 85.6514 56.1403 86.0079 56.344C86.3644 56.5477 86.6767 56.8206 86.9264 57.1465C87.1762 57.4724 87.3583 57.845 87.4623 58.2422Z" fill="white"/>
</svg>
